# Blender v2.69 (sub 0) OBJ File: ''
# www.blender.org
mtllib CartoonTree.mtl
o Cone
v 0.000000 -0.001794 -0.028752
v 0.000000 0.089425 -0.028752
v 0.020331 0.089425 -0.020331
v 0.020331 -0.001794 -0.020331
v 0.028752 0.089425 0.000000
v 0.028752 -0.001794 -0.000000
v 0.020331 0.089425 0.020331
v 0.020331 -0.001794 0.020331
v 0.000000 0.089425 0.028752
v 0.000000 -0.001794 0.028752
v -0.020331 0.089425 0.020331
v -0.020331 -0.001794 0.020331
v -0.028752 0.089425 0.000000
v -0.028752 -0.001794 -0.000000
v -0.020331 0.089425 -0.020331
v -0.020331 -0.001794 -0.020331
v -0.044216 0.241176 0.000000
v 0.000000 0.329609 0.000000
v -0.031266 0.241176 -0.031266
v 0.000000 0.241176 -0.044216
v 0.031266 0.241176 -0.031266
v -0.031266 0.241176 0.031266
v 0.000000 0.241176 0.044217
v 0.031266 0.241176 0.031266
v 0.044216 0.241176 0.000000
v -0.095159 0.073745 0.000000
v 0.000000 0.264062 0.000000
v -0.067287 0.073745 -0.067287
v 0.000000 0.073745 -0.095159
v 0.067287 0.073745 -0.067287
v -0.067287 0.073745 0.067287
v 0.000000 0.073745 0.095159
v 0.067287 0.073745 0.067287
v 0.095159 0.073745 0.000000
v -0.069599 0.160000 0.000000
v 0.000000 0.299198 0.000000
v -0.049214 0.160000 -0.049214
v 0.000000 0.160000 -0.069599
v 0.049214 0.160000 -0.049214
v -0.049214 0.160000 0.049214
v 0.000000 0.160000 0.069599
v 0.049214 0.160000 0.049214
v 0.069599 0.160000 0.000000
vt 0.533374 0.818478
vt 0.533374 1.040427
vt 0.458525 0.831479
vt 0.139664 1.009022
vt 0.266687 0.827015
vt 0.208483 1.041196
vt 0.409455 1.040427
vt 0.285536 0.862868
vt 0.334606 0.831479
vt 0.409455 0.818478
vt 0.849131 0.831479
vt 0.923979 1.040427
vt 0.800060 0.862868
vt 0.923979 0.818478
vt 0.409455 0.862868
vt 0.266687 1.043540
vt 0.500000 1.000000
vt 0.853553 0.853553
vt 1.000000 0.500000
vt 0.853553 0.146447
vt 0.500000 0.000000
vt 0.146447 0.146447
vt 0.000000 0.500000
vt 0.146447 0.853553
vt 0.266687 0.000000
vt 0.266687 0.477658
vt 0.105605 0.027981
vt 0.800060 0.477658
vt 0.800060 0.955315
vt 0.638978 0.505638
vt 0.533374 0.095532
vt 0.638978 0.027981
vt 0.800060 0.000000
vt 0.372292 0.027981
vt 0.533373 0.477658
vt 0.266687 0.095532
vt 0.533374 0.000000
vt 0.000000 0.095532
vt 0.533374 0.573189
vt 0.148872 0.498123
vt 0.800060 0.423324
vt 1.000000 0.136838
vt 0.908385 0.473969
vt 0.533374 0.477658
vt 0.533373 0.818478
vt 0.441759 0.814789
vt 0.333434 0.764145
vt 0.908385 0.814789
vt 1.000000 0.477658
vt 1.000000 0.818478
vt 0.800060 0.764145
vt 0.071633 0.547529
vt 0.000000 0.000000
vt 1.000000 0.000000
vt 1.000000 1.000000
vt 0.000000 1.000000
vn -0.838717 0.419359 -0.347408
vn 0.347408 0.419358 -0.838717
vn -0.838717 0.419358 0.347408
vn -0.347409 0.419358 0.838717
vn 0.347409 0.419358 0.838717
vn 0.838717 0.419358 0.347408
vn -0.347408 0.419358 -0.838717
vn 0.838717 0.419358 -0.347408
vn 0.000000 -1.000000 -0.000000
vn 0.347408 0.419359 -0.838717
vn -0.347408 0.419358 0.838717
vn 0.347408 0.419358 0.838717
vn -0.347408 0.419359 -0.838717
vn 0.838717 0.419359 -0.347408
vn -0.838717 0.419358 -0.347408
vn -0.838717 0.419358 0.347409
vn 0.838717 0.419358 0.347409
vn 0.838717 0.419358 -0.347409
vn 0.382684 0.000000 -0.923879
vn 0.923879 0.000000 -0.382684
vn 0.923880 -0.000000 0.382684
vn 0.382684 -0.000000 0.923879
vn -0.382684 -0.000000 0.923879
vn -0.923879 -0.000000 0.382683
vn -0.382684 0.000000 -0.923879
vn -0.923880 0.000000 -0.382684
vn 0.000000 1.000000 0.000000
g Cone_Cone_Material.001
usemtl Material.001
s off
f 17/1/1 18/2/1 19/3/1
f 20/4/2 18/5/2 21/6/2
f 18/7/3 17/8/3 22/9/3
f 23/10/4 18/7/4 22/9/4
f 24/11/5 18/12/5 23/13/5
f 25/14/6 18/12/6 24/11/6
f 19/3/7 18/2/7 20/15/7
f 21/6/8 18/5/8 25/16/8
f 21/17/9 25/18/9 24/19/9 23/20/9 22/21/9 17/22/9 19/23/9 20/24/9
f 26/25/1 27/26/1 28/27/1
f 29/28/10 27/29/10 30/30/10
f 27/28/3 26/31/3 31/32/3
f 32/33/11 27/28/11 31/32/11
f 33/34/12 27/35/12 32/36/12
f 34/37/6 27/35/6 33/34/6
f 28/27/13 27/26/13 29/38/13
f 30/30/14 27/29/14 34/39/14
f 30/17/9 34/18/9 33/19/9 32/20/9 31/21/9 26/22/9 28/23/9 29/24/9
f 35/26/15 36/5/15 37/40/15
f 38/41/10 36/42/10 39/43/10
f 36/44/16 35/45/16 40/46/16
f 41/47/4 36/44/4 40/46/4
f 42/48/5 36/49/5 41/50/5
f 43/51/17 36/49/17 42/48/17
f 37/40/13 36/5/13 38/52/13
f 39/43/18 36/42/18 43/49/18
f 39/17/9 43/18/9 42/19/9 41/20/9 40/21/9 35/22/9 37/23/9 38/24/9
g Cone_Cone_Material.002
usemtl Material.002
f 1/53/19 2/54/19 3/55/19 4/56/19
f 4/53/20 3/54/20 5/55/20 6/56/20
f 6/53/21 5/54/21 7/55/21 8/56/21
f 8/53/22 7/54/22 9/55/22 10/56/22
f 10/53/23 9/54/23 11/55/23 12/56/23
f 12/53/24 11/54/24 13/55/24 14/56/24
f 2/53/25 1/54/25 16/55/25 15/56/25
f 14/53/26 13/54/26 15/55/26 16/56/26
f 7/17/27 5/18/27 3/19/27 2/20/27 15/21/27 13/22/27 11/23/27 9/24/27
f 6/17/9 8/18/9 10/19/9 12/20/9 14/21/9 16/22/9 1/23/9 4/24/9
