# Blender v2.69 (sub 0) OBJ File: 'test.blend'
# www.blender.org
mtllib house.mtl
o Cube
v 0.198279 0.469630 1.271178
v 0.198279 0.469630 0.446527
v 1.022930 0.469630 0.446527
v 1.022930 0.469630 1.271178
v 0.198279 1.294281 1.271178
v 0.198279 1.294281 0.446527
v 1.022930 1.294281 0.446527
v 1.022930 1.294281 1.271178
v -1.011201 -0.102260 -0.776129
v 0.988798 -0.099870 -0.776097
v 0.988768 -0.101292 1.782586
v -1.011231 -0.103681 1.782554
v -0.014922 2.507034 -0.326034
v -0.011738 2.507073 -0.326033
v -0.011755 2.506289 1.335654
v -0.014939 2.506250 1.335653
v -0.011202 -0.101065 -0.776113
v -0.011232 -0.102486 1.782570
v -0.011866 2.507049 -0.326033
v -0.011883 2.506265 1.335654
v -1.012612 1.462176 -0.775290
v 0.987387 1.464565 -0.775258
v 0.987357 1.463144 1.783425
v -1.012642 1.460754 1.783394
v -0.012613 1.463370 -0.775273
v -0.012643 1.461949 1.783410
v -1.311038 1.481191 -1.073689
v 1.285776 1.484294 -1.073647
v 1.285737 1.482448 2.081851
v -1.311077 1.479346 2.081810
v -0.012631 1.482742 -1.073667
v -0.012670 1.480897 2.081831
v 0.571642 1.671665 0.069053
v 0.272375 1.671308 0.069049
v 0.272382 1.671636 -0.393262
v 0.571649 1.671994 -0.393258
v 0.570458 2.662716 0.069757
v 0.271190 2.662358 0.069753
v 0.271197 2.662687 -0.392557
v 0.570465 2.663044 -0.392553
vt 0.747782 0.107635
vt 0.336682 0.434749
vt 0.332710 0.434749
vt 0.333348 0.107635
vt 0.629277 0.105379
vt 0.629938 0.444125
vt 0.625825 0.444125
vt 0.200105 0.105379
vt 1.002047 0.996324
vt 0.647003 0.996286
vt 0.647068 0.705334
vt 1.002112 0.705372
vt 0.979939 0.054495
vt 0.714358 0.418901
vt 0.322158 0.418901
vt 0.056577 0.054495
vt 0.203507 0.588691
vt 0.316409 0.588691
vt 0.316409 0.895759
vt 0.203507 0.895760
vt 0.118385 0.805288
vt 0.299713 0.805288
vt 0.299713 0.958822
vt 0.118385 0.958822
vt 0.339480 0.878996
vt 0.158152 0.878996
vt 0.158152 0.571927
vt 0.339480 0.571927
vt 0.080615 0.757393
vt 0.261943 0.757393
vt 0.261943 0.910928
vt 0.080615 0.910928
vt 0.189166 0.670379
vt 0.370494 0.670380
vt 0.370494 0.823914
vt 0.189166 0.823914
vt 0.138357 0.676502
vt 0.319685 0.676502
vt 0.319685 0.830037
vt 0.138357 0.830037
vt 0.241353 0.833718
vt 0.195405 0.833718
vt 0.195405 0.681558
vt 0.241353 0.681558
vt 0.170372 0.586816
vt 0.241353 0.586816
vt 0.170372 0.681558
vt 0.398701 0.797401
vt 0.398701 0.843349
vt 0.246540 0.843349
vt 0.246540 0.797401
vt 0.269646 0.860814
vt 0.199401 0.861094
vt 0.200287 0.768613
vt 0.270532 0.768333
vt 0.241353 0.550861
vt 0.170372 0.550861
vt 0.385009 0.422801
vt 0.203351 0.022485
vt 0.834932 0.022485
vt 0.653274 0.422801
vt 0.745406 0.071024
vt 0.311842 0.419088
vt 0.305109 0.419088
vt 0.304430 0.071024
vt 0.645151 0.094256
vt 0.644506 0.424521
vt 0.638118 0.424521
vt 0.226724 0.094256
vt 0.000000 0.000000
vt 0.552235 0.398701
vt 0.705770 0.398701
vt 0.705770 0.705770
vt 0.552235 0.705770
vt 0.401082 0.114676
vt 0.401082 0.284025
vt 0.398701 0.284025
vt 0.398701 0.114676
vt 0.398701 0.398701
vt 0.398701 0.705770
vt 0.402578 0.114676
vt 0.402578 0.284025
vt 0.045816 0.045816
vt 0.045816 0.352885
vt 0.000000 0.398701
vt 0.199350 0.045816
vt 0.199350 0.000000
vt 0.398701 0.000000
vt 0.352885 0.045816
vt 0.352885 0.352885
vt 0.199350 0.352885
vt 0.199350 0.398701
vt 0.444649 0.776750
vt 0.398701 0.776750
vt 0.444649 0.705770
vn -0.000696 0.589559 -0.807725
vn -0.000721 0.588411 0.808562
vn 1.000000 0.000000 0.000000
vn 0.619259 0.785187 0.000436
vn -1.000000 -0.000902 -0.000012
vn 0.000015 0.000537 -1.000000
vn 1.000000 0.000902 0.000012
vn -0.000015 -0.000537 1.000000
vn -0.000015 -0.000710 1.000000
vn -0.999999 -0.001195 -0.000016
vn 0.000014 0.000711 -1.000000
vn 0.999999 0.001195 0.000015
vn -0.001195 0.999999 0.000711
vn -0.620805 0.783965 0.000421
vn -0.000727 0.588398 0.808571
vn -0.000702 0.589547 -0.807734
vn -1.000000 0.000000 0.000000
vn 0.000000 0.000000 -1.000000
vn 0.000000 0.000000 1.000000
vn 0.000000 -1.000000 0.000000
vn 0.000000 1.000000 0.000000
vn 0.001195 -0.999999 -0.000555
vn -0.182782 0.983153 0.000462
vn 0.001195 -0.999999 -0.000556
vn -0.004837 0.999988 0.000472
vn -0.062883 -0.998021 -0.000571
vn 0.001193 -0.997899 -0.064785
vn 0.065267 -0.997868 -0.000570
vn 0.001191 -0.997990 0.063366
vn 0.001193 -0.997899 -0.064784
vn 0.001195 -0.999999 -0.000711
g Cube_Cube_Material
usemtl Material
s off
f 27/1/1 13/2/1 19/3/1 31/4/1
g Cube_Cube_Material_house.jpg.004
usemtl Material_house.jpg.004
f 32/5/2 20/6/2 16/7/2 30/8/2
g Cube_Cube_Material_house.jpg
usemtl Material_house.jpg
f 7/9/3 8/10/3 4/11/3 3/12/3
f 28/13/4 14/14/4 15/15/4 29/16/4
f 21/17/5 9/18/5 12/19/5 24/20/5
f 17/21/6 25/22/6 22/23/6 10/24/6
f 10/25/7 22/26/7 23/27/7 11/28/7
f 18/29/8 26/30/8 24/31/8 12/32/8
f 9/33/6 21/34/6 25/35/6 17/36/6
f 11/37/8 23/38/8 26/39/8 18/40/8
f 37/41/9 38/42/9 34/43/9 33/44/9
f 38/45/10 39/46/10 35/44/10 34/47/10
f 39/48/11 40/49/11 36/50/11 35/51/11
f 40/52/12 37/53/12 33/54/12 36/55/12
f 40/56/13 39/46/13 38/45/13 37/57/13
g Cube_Cube_Material_house.jpg.003
usemtl Material_house.jpg.003
f 13/58/14 27/59/14 30/60/14 16/61/14
g Cube_Cube_Material_house.jpg.005
usemtl Material_house.jpg.005
f 29/62/15 15/63/15 20/64/15 32/65/15
g Cube_Cube_Material_house.jpg.001
usemtl Material_house.jpg.001
f 31/66/16 19/67/16 14/68/16 28/69/16
g Cube_Cube_Material_NONE
usemtl Material_NONE
f 5/70/17 6/70/17 2/70/17 1/70/17
f 6/70/18 7/70/18 3/70/18 2/70/18
f 8/70/19 5/70/19 1/70/19 4/70/19
f 1/70/20 2/70/20 3/70/20 4/70/20
f 8/70/21 7/70/21 6/70/21 5/70/21
f 17/71/22 10/72/22 11/73/22 18/74/22
f 19/75/23 20/76/23 15/77/23 14/78/23
f 9/79/24 17/71/24 18/74/24 12/80/24
f 13/81/25 16/82/25 20/76/25 19/75/25
f 27/70/26 21/83/26 24/84/26 30/85/26
f 25/86/27 31/87/27 28/88/27 22/89/27
f 22/89/28 28/88/28 29/79/28 23/90/28
f 26/91/29 32/92/29 30/85/29 24/84/29
f 21/83/30 27/70/30 31/87/30 25/86/30
f 23/90/29 29/79/29 32/92/29 26/91/29
f 33/93/31 34/94/31 35/80/31 36/95/31
